# xmcd CD database file
#
# Track frame offsets:
#	150
#	38974
#	64470
#	98514
#	132558
#	164795
#	201569
#	236154
#
# Disc length: 3669 seconds
#
# Revision: 0
# Processed by: cddbd v1.5.2PL0 Copyright (c) Steve Scherf et al.
# Submitted via: CDex 1.51
#
DISCID=7e0e5308
DTITLE=Global Journey - Nature's Chant
DYEAR=2009
DGENRE=New Age
TTITLE0=Time Stands Still
TTITLE1=Enchanted
TTITLE2=Echoes of the Past
TTITLE3=Softly into Eventide
TTITLE4=Upon Reflection
TTITLE5=Transcient
TTITLE6=Epiphany and Light
TTITLE7=Heaven Essence
EXTD=YEAR: 2009
EXTT0=
EXTT1=
EXTT2=
EXTT3=
EXTT4=
EXTT5=
EXTT6=
EXTT7=
PLAYORDER=
